<svg width="89" height="66" viewBox="0 0 89 66" fill="none" xmlns="http://www.w3.org/2000/svg">
<path fill-rule="evenodd" clip-rule="evenodd" d="M10.97 23.1486L10.1869 26.9332H3.20767C1.56972 26.9332 0.472084 25.8356 0.365234 24.1964V20.9193C0.365234 19.3882 1.46044 18.3027 2.99154 18.3027H4.73877C8.0171 18.3027 10.1504 21.7268 10.97 23.1486Z" fill="#70EFDD"/>
<path fill-rule="evenodd" clip-rule="evenodd" d="M77.957 23.1486L78.7414 26.9332H85.7194C87.3586 26.9332 88.455 25.8356 88.563 24.1964V20.9193C88.563 19.3882 87.4666 18.3027 85.9355 18.3027H84.1883C80.9112 18.3027 78.7778 21.7268 77.957 23.1486Z" fill="#70EFDD"/>
<mask id="mask0" mask-type="alpha" maskUnits="userSpaceOnUse" x="9" y="58" width="12" height="8">
<path fill-rule="evenodd" clip-rule="evenodd" d="M9.10254 58.6309H20.8293V65.5611H9.10254V58.6309Z" fill="white"/>
</mask>
<g mask="url(#mask0)">
<path fill-rule="evenodd" clip-rule="evenodd" d="M20.8293 58.6309V62.1739C20.8293 64.476 19.6236 65.5615 17.4295 65.5615H12.2837C10.307 65.5615 9.10254 64.3558 9.10254 62.2832V58.6309H20.8293Z" fill="#70EFDD"/>
</g>
<mask id="mask1" mask-type="alpha" maskUnits="userSpaceOnUse" x="68" y="58" width="12" height="8">
<path fill-rule="evenodd" clip-rule="evenodd" d="M68.0996 58.6309H79.8263V65.5611H68.0996V58.6309Z" fill="white"/>
</mask>
<g mask="url(#mask1)">
<path fill-rule="evenodd" clip-rule="evenodd" d="M68.0996 58.6309V62.1739C68.0996 64.476 69.3041 65.5615 71.4981 65.5615H76.6451C78.6218 65.5615 79.8263 64.3558 79.8263 62.2832V58.6309H68.0996Z" fill="#70EFDD"/>
</g>
<path fill-rule="evenodd" clip-rule="evenodd" d="M44.4637 23.9321H44.3678C35.4617 23.9321 26.445 24.3425 17.551 25.0771C17.551 25.0771 20.9253 14.3982 23.4812 9.95181C23.5892 9.73447 23.7944 9.52927 23.9984 9.32528C24.2036 9.216 24.4088 9.0108 24.614 9.0108C26.2411 8.28836 31.1586 6.84225 44.4637 6.73297C57.7701 6.84225 62.6876 8.28836 64.3146 9.0108C64.5198 9.0108 64.725 9.216 64.929 9.32528C65.1342 9.52927 65.3382 9.73447 65.4475 9.95181C68.0034 14.3982 71.3776 25.0771 71.3776 25.0771C62.4824 24.3425 53.467 23.9321 44.5609 23.9321H44.4637ZM85.84 42.1074C85.84 36.2137 83.0073 30.9708 78.7406 26.9336L77.9575 23.1489C77.4523 21.4976 74.089 11.2291 70.5581 5.96195C68.545 2.96167 65.5326 1.9126 62.253 1.36986C56.3484 0.393643 50.4656 0.273438 44.4638 0.273438C38.4633 0.273438 32.5805 0.393643 26.6759 1.36986C23.3963 1.9126 20.3839 2.96167 18.3707 5.96195C14.8399 11.2291 11.4765 21.4976 10.9702 23.1489L10.1871 26.9336C5.92037 30.9708 3.08887 36.2137 3.08887 42.1074C3.15686 44.3403 3.13865 50.4635 3.11558 54.5954C3.10344 56.8235 4.90652 58.6314 7.13457 58.6314H44.4638H81.7943C84.0224 58.6314 85.8254 56.8235 85.8133 54.5954C85.7902 50.4635 85.772 44.3403 85.84 42.1074Z" fill="#6F43D6"/>
<path fill-rule="evenodd" clip-rule="evenodd" d="M65.4482 9.952C65.3389 9.73466 65.1349 9.52946 64.9297 9.32547C64.7245 9.21741 64.5193 9.01221 64.3141 9.01221C62.6883 8.28855 57.7708 6.84244 44.4644 6.73438C31.1593 6.84244 26.2418 8.28855 24.6147 9.01221C24.4095 9.01221 24.2043 9.21741 23.9991 9.32547C23.7939 9.52946 23.5887 9.73466 23.4819 9.952C20.926 14.3996 17.5518 25.0772 17.5518 25.0772C26.4458 24.3427 35.4624 23.9323 44.3685 23.9323H44.4644H44.5616C53.4677 23.9323 62.4831 24.3427 71.3783 25.0772C71.3783 25.0772 68.0029 14.3996 65.4482 9.952Z" fill="#F2F4F8"/>
<path fill-rule="evenodd" clip-rule="evenodd" d="M27.362 39.4563V45.2528L20.673 42.7589L13.9961 45.2528V39.4563L20.673 34.166L27.362 39.4563Z" fill="#70EFDD"/>
<path fill-rule="evenodd" clip-rule="evenodd" d="M61.5664 39.4563V45.2528L68.2554 42.7589L74.9323 45.2528V39.4563L68.2554 34.166L61.5664 39.4563Z" fill="#70EFDD"/>
</svg>
