<svg width="60" height="44" viewBox="0 0 60 44" fill="none" xmlns="http://www.w3.org/2000/svg">
<path fill-rule="evenodd" clip-rule="evenodd" d="M7.97953 15.4317L7.45743 17.9548H2.80462C1.71266 17.9548 0.980901 17.2231 0.909668 16.1303V13.9456C0.909668 12.9248 1.6398 12.2012 2.66054 12.2012H3.82536C6.01091 12.2012 7.43314 14.4839 7.97953 15.4317Z" fill="white"/>
<path fill-rule="evenodd" clip-rule="evenodd" d="M52.6377 15.4317L53.1606 17.9548H57.8126C58.9054 17.9548 59.6363 17.2231 59.7084 16.1303V13.9456C59.7084 12.9248 58.9774 12.2012 57.9567 12.2012H56.7919C54.6071 12.2012 53.1849 14.4839 52.6377 15.4317Z" fill="white"/>
<mask id="mask0" mask-type="alpha" maskUnits="userSpaceOnUse" x="6" y="39" width="9" height="5">
<path fill-rule="evenodd" clip-rule="evenodd" d="M6.73462 39.0869H14.5524V43.7071H6.73462V39.0869Z" fill="white"/>
</mask>
<g mask="url(#mask0)">
<path fill-rule="evenodd" clip-rule="evenodd" d="M14.5524 39.0869V41.4489C14.5524 42.9837 13.7486 43.7073 12.2859 43.7073H8.85542C7.53761 43.7073 6.73462 42.9035 6.73462 41.5218V39.0869H14.5524Z" fill="white"/>
</g>
<mask id="mask1" mask-type="alpha" maskUnits="userSpaceOnUse" x="46" y="39" width="8" height="5">
<path fill-rule="evenodd" clip-rule="evenodd" d="M46.0654 39.0869H53.8832V43.7071H46.0654V39.0869Z" fill="white"/>
</mask>
<g mask="url(#mask1)">
<path fill-rule="evenodd" clip-rule="evenodd" d="M46.0654 39.0869V41.4489C46.0654 42.9837 46.8684 43.7073 48.3311 43.7073H51.7624C53.0803 43.7073 53.8832 42.9035 53.8832 41.5218V39.0869H46.0654Z" fill="white"/>
</g>
<path fill-rule="evenodd" clip-rule="evenodd" d="M30.3087 15.954H30.2447C24.3073 15.954 18.2962 16.2276 12.3669 16.7173C12.3669 16.7173 14.6164 9.59804 16.3203 6.63378C16.3923 6.48888 16.5291 6.35209 16.6651 6.21609C16.8019 6.14324 16.9387 6.00644 17.0755 6.00644C18.1602 5.52481 21.4385 4.56074 30.3087 4.48789C39.1796 4.56074 42.4579 5.52481 43.5426 6.00644C43.6794 6.00644 43.8162 6.14324 43.9522 6.21609C44.089 6.35209 44.225 6.48888 44.2978 6.63378C46.0017 9.59804 48.2512 16.7173 48.2512 16.7173C42.3211 16.2276 36.3108 15.954 30.3734 15.954H30.3087ZM57.8928 28.0709C57.8928 24.1418 56.0043 20.6465 53.1598 17.9551L52.6377 15.432C52.301 14.3311 50.0588 7.48544 47.7049 3.97398C46.3628 1.9738 44.3545 1.27442 42.1681 0.912587C38.2317 0.261778 34.3098 0.181641 30.3087 0.181641C26.3083 0.181641 22.3864 0.261778 18.45 0.912587C16.2636 1.27442 14.2554 1.9738 12.9133 3.97398C10.5593 7.48544 8.31712 14.3311 7.97958 15.432L7.45747 17.9551C4.61301 20.6465 2.72534 24.1418 2.72534 28.0709C2.77067 29.5595 2.75853 33.6417 2.74315 36.3963C2.73506 37.8816 3.93711 39.0869 5.42248 39.0869H30.3087H55.1956C56.681 39.0869 57.8831 37.8816 57.875 36.3963C57.8596 33.6417 57.8474 29.5595 57.8928 28.0709Z" fill="#6F43D6"/>
<path fill-rule="evenodd" clip-rule="evenodd" d="M44.2979 6.63434C44.225 6.48944 44.089 6.35264 43.9522 6.21665C43.8155 6.14461 43.6786 6.00781 43.5419 6.00781C42.458 5.52537 39.1796 4.5613 30.3087 4.48926C21.4386 4.5613 18.1603 5.52537 17.0756 6.00781C16.9388 6.00781 16.802 6.14461 16.6652 6.21665C16.5284 6.35264 16.3916 6.48944 16.3204 6.63434C14.6164 9.59941 12.3669 16.7178 12.3669 16.7178C18.2963 16.2281 24.3074 15.9545 30.2448 15.9545H30.3087H30.3735C36.3109 15.9545 42.3212 16.2281 48.2513 16.7178C48.2513 16.7178 46.001 9.59941 44.2979 6.63434Z" fill="white"/>
<path fill-rule="evenodd" clip-rule="evenodd" d="M18.9074 26.3032V30.1676L14.4481 28.505L9.99683 30.1676V26.3032L14.4481 22.7764L18.9074 26.3032Z" fill="white"/>
<path fill-rule="evenodd" clip-rule="evenodd" d="M41.7104 26.3032V30.1676L46.1698 28.505L50.621 30.1676V26.3032L46.1698 22.7764L41.7104 26.3032Z" fill="white"/>
</svg>
