<svg width="89" height="106" viewBox="0 0 89 106" fill="none" xmlns="http://www.w3.org/2000/svg">
<path d="M68.5811 21.3098L67.3711 20.5898C66.7622 20.2439 66.2275 19.7815 65.7975 19.2289C65.3674 18.6763 65.0505 18.0443 64.8647 17.3692C64.679 16.694 64.6281 15.9889 64.715 15.2941C64.8019 14.5993 65.0248 13.9284 65.3711 13.3198L66.0811 12.1198C66.7815 10.8895 67.9419 9.98771 69.307 9.61267C70.6722 9.23763 72.1304 9.42004 73.3611 10.1198L74.5611 10.8398C75.1709 11.1847 75.7066 11.6467 76.1374 12.1992C76.5681 12.7517 76.8856 13.3838 77.0714 14.0593C77.2572 14.7348 77.3078 15.4403 77.2202 16.1354C77.1327 16.8305 76.9087 17.5015 76.5611 18.1098L75.8511 19.3098C75.5052 19.9186 75.0427 20.4533 74.4901 20.8834C73.9375 21.3134 73.3056 21.6304 72.6305 21.8161C71.9553 22.0019 71.2502 22.0527 70.5554 21.9659C69.8606 21.879 69.1897 21.656 68.5811 21.3098Z" fill="#70EFDD"/>
<path d="M48.7709 54.5C47.9209 45.27 46.2309 31 44.3109 31C42.3909 31 40.6509 45.22 39.8509 54.5C38.621 55.2816 37.6159 56.3701 36.9345 57.6582C36.2532 58.9464 35.9191 60.3898 35.9651 61.8463C36.0112 63.3029 36.4358 64.7223 37.1973 65.9648C37.9587 67.2073 39.0306 68.2301 40.3074 68.9324C41.5843 69.6348 43.022 69.9924 44.4791 69.9701C45.9362 69.9479 47.3624 69.5465 48.6172 68.8055C49.872 68.0645 50.9121 67.0094 51.6352 65.7442C52.3583 64.479 52.7394 63.0473 52.7409 61.59C52.7062 60.1744 52.3264 58.7886 51.6345 57.553C50.9427 56.3175 49.9597 55.2695 48.7709 54.5Z" fill="#70EFDD"/>
<path d="M43.9808 105.21C35.8345 105.211 27.848 102.95 20.9108 98.68L19.9108 98.05L19.8308 98.24C14.4277 94.5949 9.88251 89.8177 6.51075 84.24L6.24075 83.79L5.64075 82.79C2.16839 76.6103 0.240477 69.6831 0.0210829 62.598C-0.198311 55.5129 1.29732 48.4797 4.38067 42.097C7.46402 35.7142 12.0438 30.1709 17.7303 25.9388C23.4167 21.7067 30.0415 18.9111 37.0408 17.79L37.9708 17.64L37.8808 16.7C37.8761 16.6401 37.8761 16.5799 37.8808 16.52V11.25H35.5208C34.7569 11.25 34.0244 10.9466 33.4843 10.4065C32.9442 9.86636 32.6408 9.13382 32.6408 8.37V2.88C32.6408 2.11618 32.9442 1.38364 33.4843 0.843532C34.0244 0.303428 34.7569 0 35.5208 0L52.8708 0C53.6346 0 54.3671 0.303428 54.9072 0.843532C55.4473 1.38364 55.7508 2.11618 55.7508 2.88V8.32C55.7508 9.08475 55.4477 9.81832 54.9078 10.36C54.368 10.9017 53.6355 11.2074 52.8708 11.21H50.5308V16.44C50.5308 16.56 50.5308 16.67 50.5308 16.78L50.4708 17.68L51.3608 17.83C61.5196 19.5684 70.7478 24.8124 77.4408 32.65L77.8108 33.08L78.0807 33.41C84.6646 41.3255 88.2729 51.2943 88.2808 61.59C88.2303 65.7909 87.4696 69.9529 86.0308 73.9L85.7308 75.11C82.823 83.8814 77.2227 91.5122 69.7269 96.9164C62.231 102.321 53.2216 105.223 43.9808 105.21ZM43.9808 28.21C37.454 28.21 31.0738 30.1454 25.6469 33.7715C20.2201 37.3976 15.9904 42.5515 13.4927 48.5814C10.995 54.6114 10.3415 61.2466 11.6148 67.648C12.8882 74.0494 16.0311 79.9294 20.6462 84.5445C25.2614 89.1597 31.1414 92.3026 37.5428 93.5759C43.9441 94.8492 50.5793 94.1957 56.6093 91.698C62.6393 89.2003 67.7932 84.9706 71.4193 79.5438C75.0453 74.117 76.9808 67.7368 76.9808 61.21C76.9808 52.4579 73.504 44.0642 67.3153 37.8755C61.1266 31.6868 52.7329 28.21 43.9808 28.21Z" fill="#6F43D6"/>
</svg>
