<svg width="133" height="33" viewBox="0 0 133 33" fill="none" xmlns="http://www.w3.org/2000/svg">
<path fill-rule="evenodd" clip-rule="evenodd" d="M42.8929 32.7869L132.973 27.7337V0H51.4625L48.8505 9.98594C47.2839 6.78562 44.0241 4.785 39.8798 4.785C34.0011 4.785 29.8945 8.81375 29.8945 14.5853C29.8945 20.3569 34.0079 24.4613 39.8798 24.4613C41.8422 24.4882 43.7733 23.9669 45.4569 22.9556L42.8929 32.7869ZM119.032 4.92252C124.287 4.92252 127.842 8.45971 127.879 13.7191C127.898 14.3949 127.859 15.0711 127.763 15.7403L127.643 16.6272H114.363C115.049 18.8788 116.872 20.1885 119.457 20.1885C121.363 20.1885 122.953 19.8756 125.226 19.2947L126.254 19.03L127.033 22.9969L126.138 23.2616C123.882 23.9285 121.952 24.4406 119.368 24.4406C113.462 24.4406 109.492 20.5013 109.492 14.6438C109.509 8.92377 113.427 4.92252 119.032 4.92252ZM96.5487 6.08435L97.392 5.9331C100.455 5.37729 103.561 5.09203 106.675 5.0806H107.703V9.49435H106.675C104.78 9.47807 102.887 9.56184 101.001 9.74529V23.9147H96.5453L96.5487 6.08435ZM81.9909 4.92248C84.8717 4.91396 87.745 5.21823 90.5605 5.82998L91.39 5.99154V23.9147H86.9338V23.2272C85.364 24.0437 83.6188 24.4627 81.8504 24.4475C76.3658 24.4475 72.6809 20.4944 72.6809 14.6128C72.6809 8.73123 76.3658 4.92248 81.9909 4.92248ZM63.5765 4.85376C65.5903 4.86736 67.5905 5.18487 69.5101 5.79563L70.343 6.08094L69.6369 9.98251L68.5743 9.71094C66.9885 9.28418 65.3583 9.04536 63.717 8.99938C60.1658 8.99938 57.8554 11.2166 57.8554 14.6506C57.8554 18.0847 60.0389 20.2675 63.4222 20.2675C64.6768 20.2675 66.7472 19.9238 68.8279 19.3772L69.8837 19.0988L70.6515 23.0931L69.7843 23.3681C67.7013 24.0311 65.535 24.3945 63.3502 24.4475C57.4715 24.4475 53.3684 20.4016 53.3684 14.6128C53.3684 8.82407 57.4783 4.85376 63.5765 4.85376ZM39.8798 20.2056C36.6131 20.2056 34.4193 17.9472 34.4193 14.5853C34.4193 11.2888 36.6131 9.08532 39.8798 9.08532C43.1979 9.08532 45.3438 11.2509 45.3438 14.5853C45.3438 17.9197 43.1465 20.2056 39.8798 20.2056Z" fill="#6F43D6"/>
<path fill-rule="evenodd" clip-rule="evenodd" d="M82.1306 20.3022C83.7897 20.3022 85.2157 19.8553 86.9536 18.7759V9.39156C85.415 9.1731 83.8628 9.06512 82.3088 9.06843C79.0181 9.06843 77.1328 11.1309 77.1328 14.6853C77.1328 18.0987 79.1072 20.3022 82.1306 20.3022Z" fill="#6F43D6"/>
<path fill-rule="evenodd" clip-rule="evenodd" d="M119.066 8.96191C116.553 8.96191 114.812 10.3369 114.239 12.6675H123.542C123.141 10.3266 121.527 8.96191 119.066 8.96191Z" fill="#6F43D6"/>
<path fill-rule="evenodd" clip-rule="evenodd" d="M18.1607 4.8916C12.5494 4.8916 8.63477 8.89285 8.63477 14.6232C8.63477 20.4669 12.6042 24.4235 18.5138 24.4235C21.0984 24.4235 23.0317 23.9147 25.2872 23.2444L26.1819 22.9797L25.4037 19.0128L24.3754 19.2775C22.0856 19.8619 20.4916 20.1713 18.5858 20.1713C16.0012 20.1713 14.1639 18.8616 13.4886 16.6066H26.7783L26.8983 15.7197C26.9945 15.0505 27.0335 14.3743 27.0148 13.6985C26.9737 8.42535 23.4156 4.8916 18.1607 4.8916ZM13.3651 12.6432C13.9376 10.2954 15.6926 8.93068 18.195 8.93068C20.6973 8.93068 22.2741 10.3057 22.6751 12.6363L13.3651 12.6432Z" fill="#6F43D6"/>
<path fill-rule="evenodd" clip-rule="evenodd" d="M4.45619 15.8331V0H0V15.8331C0 20.5288 2.26923 24.0144 5.9233 24.9322L7.00307 20.5941C5.40912 20.2056 4.45619 18.4147 4.45619 15.8331Z" fill="#6F43D6"/>
</svg>
