<svg width="98" height="56" viewBox="0 0 98 56" fill="none" xmlns="http://www.w3.org/2000/svg">
<mask id="mask0" mask-type="alpha" maskUnits="userSpaceOnUse" x="1" y="1" width="71" height="54">
<path fill-rule="evenodd" clip-rule="evenodd" d="M10.0877 1.99023C5.43166 1.99023 1.73071 5.70784 1.73071 10.3848V45.6421C1.73071 50.3191 5.55104 54.0367 10.0877 54.0367H63.5723C68.2284 54.0367 71.9293 50.3191 71.9293 45.6421V10.3848C71.9293 5.70784 68.109 1.99023 63.5723 1.99023H10.0877Z" fill="white"/>
</mask>
<g mask="url(#mask0)">
<path fill-rule="evenodd" clip-rule="evenodd" d="M-2.0896 57.7541H75.6302V-1.72754H-2.0896V57.7541Z" fill="#FFEDF2"/>
</g>
<mask id="mask1" mask-type="alpha" maskUnits="userSpaceOnUse" x="42" y="22" width="14" height="4">
<path fill-rule="evenodd" clip-rule="evenodd" d="M44.3662 22.54C43.5305 22.54 42.8142 23.2596 42.8142 24.099C42.8142 24.9385 43.5305 25.658 44.3662 25.658H53.6783C54.514 25.658 55.2303 24.9385 55.2303 24.099C55.2303 23.2596 54.514 22.54 53.6783 22.54H44.3662Z" fill="white"/>
</mask>
<g mask="url(#mask1)">
<path fill-rule="evenodd" clip-rule="evenodd" d="M38.9939 29.2557H59.0506V18.9424H38.9939V29.2557Z" fill="#411579"/>
</g>
<mask id="mask2" mask-type="alpha" maskUnits="userSpaceOnUse" x="0" y="0" width="74" height="56">
<path fill-rule="evenodd" clip-rule="evenodd" d="M8.22221 0.601562C4.04372 0.601562 0.581543 4.07932 0.581543 8.27661V47.8511C0.581543 52.0484 3.92433 55.4062 8.22221 55.4062H34.9645C35.8002 55.4062 36.5165 54.6867 36.5165 53.8472C36.5165 53.0077 35.8002 52.2882 34.9645 52.2882H8.22221C5.71511 52.2882 3.68556 50.2495 3.68556 47.7312V12.8337H70.422V42.6944C70.422 43.5339 71.1383 44.2534 71.974 44.2534C72.8097 44.2534 73.526 43.5339 73.526 42.6944V8.27661C73.526 4.07932 70.1832 0.721485 65.8853 0.721485H8.22221V0.601562ZM3.68556 8.27661C3.68556 5.75823 5.71511 3.71955 8.22221 3.71955H65.8853C68.3924 3.71955 70.422 5.75823 70.422 8.27661V9.8356H3.68556V8.27661Z" fill="white"/>
</mask>
<g mask="url(#mask2)">
<path fill-rule="evenodd" clip-rule="evenodd" d="M-3 59.0039H77.1076V-2.99609H-3V59.0039Z" fill="#411579"/>
</g>
<path fill-rule="evenodd" clip-rule="evenodd" d="M65.8852 55.3613C70.0637 55.3613 73.4065 52.0035 73.4065 47.8062L0.581429 47.8062C0.581429 52.0035 3.92422 55.3613 8.22209 55.3613L65.8852 55.3613ZM70.4219 47.8062C70.4219 50.3246 68.3923 52.3633 65.8852 52.3633L8.22209 52.3633C5.715 52.3633 3.68545 50.3246 3.68545 47.8062L70.4219 47.8062Z" fill="#411579"/>
<mask id="mask3" mask-type="alpha" maskUnits="userSpaceOnUse" x="58" y="22" width="9" height="4">
<path fill-rule="evenodd" clip-rule="evenodd" d="M59.6025 22.54C58.7668 22.54 58.1699 23.2596 58.1699 24.099C58.1699 24.9385 58.8862 25.658 59.6025 25.658H65.4524C66.2881 25.658 66.8851 24.9385 66.8851 24.099C66.8851 23.2596 66.2881 22.54 65.4524 22.54H59.6025Z" fill="white"/>
</mask>
<g mask="url(#mask3)">
<path fill-rule="evenodd" clip-rule="evenodd" d="M54.5884 29.2557H70.3472V18.9424H54.5884V29.2557Z" fill="#411579"/>
</g>
<mask id="mask4" mask-type="alpha" maskUnits="userSpaceOnUse" x="42" y="31" width="25" height="4">
<path fill-rule="evenodd" clip-rule="evenodd" d="M44.2468 31.2012C43.4111 31.2012 42.6948 31.9207 42.6948 32.7602C42.6948 33.5996 43.4111 34.3192 44.2468 34.3192H65.378C66.2137 34.3192 66.93 33.5996 66.93 32.7602C66.93 31.9207 66.2137 31.2012 65.378 31.2012H44.2468Z" fill="white"/>
</mask>
<g mask="url(#mask4)">
<path fill-rule="evenodd" clip-rule="evenodd" d="M39.1133 38.1563H70.5116V27.3633H39.1133V38.1563Z" fill="#411579"/>
</g>
<path fill-rule="evenodd" clip-rule="evenodd" d="M70.4219 48.087V40.8916H73.4065V48.087H70.4219Z" fill="#411579"/>
<path fill-rule="evenodd" clip-rule="evenodd" d="M20.6382 31.2979C16.6985 31.4178 13.7139 34.0561 13.7139 37.0542V40.5319C13.7139 40.8917 13.8333 40.8917 13.8333 40.8917H27.8013C27.9207 40.8917 27.9207 40.7718 27.9207 40.7718V36.9342C28.0401 33.8163 24.8167 31.178 20.6382 31.2979Z" fill="#410079"/>
<path fill-rule="evenodd" clip-rule="evenodd" d="M16.2209 26.501C16.2209 23.8627 18.3699 21.7041 20.9964 21.7041C23.6228 21.7041 25.7718 23.8627 25.7718 26.501C25.7718 29.1393 23.6228 31.2979 20.9964 31.2979C18.2505 31.2979 16.2209 29.1393 16.2209 26.501Z" fill="#410079"/>
<path d="M75.5555 50.4858C87.8853 50.4858 97.8806 40.4456 97.8806 28.0603C97.8806 15.675 87.8853 5.63477 75.5555 5.63477C63.2257 5.63477 53.2305 15.675 53.2305 28.0603C53.2305 40.4456 63.2257 50.4858 75.5555 50.4858Z" fill="#6F43D6"/>
<path d="M72.2127 31.2977H65.0496V24.702H72.2127V17.3867H79.0176V24.702H86.1808V31.2977H79.0176V38.613H72.2127V31.2977Z" fill="white"/>
</svg>
