<svg width="69" height="62" viewBox="0 0 69 62" fill="none" xmlns="http://www.w3.org/2000/svg">
<path d="M18.1772 22.4037C23.6397 22.5885 28.4008 25.3429 31.4827 29.4651C28.7515 32.9034 27.1275 37.2475 27.1275 41.9797V52.4055H0.0368099C0.0183544 52.4055 -9.53674e-05 52.387 -9.53674e-05 52.3685V40.0018C-9.53674e-05 30.0751 8.19354 22.0525 18.1772 22.4037Z" fill="#6F43D6"/>
<path d="M17.5867 26.4893C10.9823 26.4893 5.62839 21.1263 5.62839 14.5108C5.62839 7.8952 10.9823 2.53223 17.5867 2.53223C24.191 2.53223 29.5449 7.8952 29.5449 14.5108C29.5449 21.1263 24.191 26.4893 17.5867 26.4893Z" fill="#70EFDD"/>
<path d="M49.5493 22.7736C60.4926 23.1433 69 32.4969 69 43.4588V55.844C69 56.9161 68.7786 57.138 68.5202 57.138H29.2129C28.9545 57.138 28.7331 56.9161 28.7331 56.6573V42.9227C28.7146 31.5542 38.1078 22.3854 49.5493 22.7736Z" fill="#6F43D6"/>
<path d="M48.8669 45.3926C58.3708 45.3926 66.14 52.8422 66.5645 62.3437C66.5645 62.4361 66.5275 62.547 66.4537 62.621C66.3799 62.6949 66.2876 62.7319 66.1954 62.7319H63.3903C63.1873 62.7319 63.0397 62.584 63.0213 62.3807C62.6153 54.8386 56.3962 48.9233 48.8669 48.9233C41.3192 48.9233 35.1186 54.8386 34.7126 62.3807C34.6942 62.584 34.5465 62.7319 34.3435 62.7319H31.5385C31.4462 62.7319 31.3355 62.6949 31.2802 62.621C31.2063 62.547 31.1694 62.4546 31.1694 62.3437C31.5939 52.8422 39.3631 45.3926 48.8669 45.3926Z" fill="#70EFDD"/>
<path d="M48.8665 27.4693C41.2939 27.4693 35.155 21.3201 35.155 13.7346C35.155 6.14921 41.2939 0 48.8665 0C56.4391 0 62.5779 6.14921 62.5779 13.7346C62.5779 21.3201 56.4391 27.4693 48.8665 27.4693Z" fill="#70EFDD"/>
</svg>
