<svg width="88" height="88" viewBox="0 0 88 88" fill="none" xmlns="http://www.w3.org/2000/svg">
<path fill-rule="evenodd" clip-rule="evenodd" d="M68.8507 60.5304C66.707 60.5304 64.9633 58.7865 64.9633 56.643C64.9633 54.4994 66.7072 52.7555 68.8507 52.7555C70.9947 52.7555 72.7388 54.4994 72.7388 56.643C72.7388 58.7865 70.9947 60.5304 68.8507 60.5304ZM41.9654 40.4123H29.0993L35.3899 33.0863H41.9654V40.4123ZM17.12 60.5304C14.9761 60.5304 13.232 58.7865 13.232 56.643C13.232 54.4994 14.9761 52.7555 17.12 52.7555C19.2636 52.7555 21.0075 54.4994 21.0075 56.643C21.0075 58.7865 19.2636 60.5304 17.12 60.5304ZM49.1261 48.9835H46.807V30.2855C46.807 29.6898 46.3244 29.2076 45.7297 29.2076H44.3638V28.5076C44.3638 27.8235 43.8089 27.2693 43.1249 27.2693C42.4403 27.2693 41.8861 27.8235 41.8861 28.5076V29.2076H32.3367C32.0292 29.2076 31.7357 29.3401 31.5315 29.5696L21.2503 41.1342H15.6332C15.5356 41.1309 15.4389 41.13 15.3439 41.13C10.0212 41.13 7.8979 45.0292 7.50084 47.1495L7.19971 48.1735H6.0279C5.3023 48.1735 4.71429 48.7622 4.71429 49.4869V55.9042C4.71429 56.4619 5.06311 56.938 5.55428 57.1283C5.68712 57.1853 5.83129 57.2178 5.97984 57.2178H6.02808H9.39587C9.69134 61.2218 13.0414 64.3901 17.12 64.3901C21.1982 64.3901 24.5483 61.2218 24.8437 57.2178H61.1271C61.4224 61.2218 64.7725 64.3901 68.8509 64.3901C72.9295 64.3901 76.2795 61.2218 76.5748 57.2178H82.2086C82.6396 57.2178 83.029 56.9605 83.1986 56.5651C83.3683 56.1686 83.2857 55.7092 82.9888 55.3979L77.201 49.3173C76.9976 49.1036 76.7155 48.9835 76.4208 48.9835H73.9037C73.9037 48.9822 73.9039 48.9811 73.9039 48.9799V47.58C73.9039 46.8961 73.3492 46.3406 72.665 46.3406C71.9804 46.3406 71.4262 46.8961 71.4262 47.58V48.9799C71.4262 48.9811 71.4264 48.9822 71.4264 48.9835H55.159H49.1261Z" fill="#6F43D6"/>
<path fill-rule="evenodd" clip-rule="evenodd" d="M54.7847 47.226V44.3938L71.9288 27.2497C72.7702 26.4084 72.7702 25.044 71.9288 24.2027C71.0875 23.3613 69.7231 23.3613 68.8816 24.2027L51.5256 41.5586H48.7518V47.2053L54.7847 47.226Z" fill="#70EFDD"/>
</svg>
